<svg width="14" height="14" viewBox="0 0 14 14" fill="none" xmlns="http://www.w3.org/2000/svg">
<path fill-rule="evenodd" clip-rule="evenodd" d="M7.00033 2.33317C4.423 2.33317 2.33366 4.42251 2.33366 6.99984C2.33366 9.57717 4.423 11.6665 7.00033 11.6665C9.57765 11.6665 11.667 9.57717 11.667 6.99984C11.667 4.42251 9.57765 2.33317 7.00033 2.33317ZM1.16699 6.99984C1.16699 3.77818 3.77866 1.1665 7.00033 1.1665C10.222 1.1665 12.8337 3.77818 12.8337 6.99984C12.8337 10.2215 10.222 12.8332 7.00033 12.8332C3.77866 12.8332 1.16699 10.2215 1.16699 6.99984ZM7.58366 4.08319V5.24986H6.41699V4.08319H7.58366ZM6.41699 9.91652V5.83319H7.58366V9.91652H6.41699Z" fill="#4E5969"/>
</svg>
