<svg width="14" height="14" viewBox="0 0 14 14" fill="none" xmlns="http://www.w3.org/2000/svg">
<path fill-rule="evenodd" clip-rule="evenodd" d="M5.25016 4.37516C5.25016 3.40866 6.03366 2.62516 7.00016 2.62516C7.96666 2.62516 8.75016 3.40866 8.75016 4.37516C8.75016 5.34166 7.96666 6.12516 7.00016 6.12516C6.03366 6.12516 5.25016 5.34166 5.25016 4.37516ZM7.00016 1.4585C5.38933 1.4585 4.0835 2.76433 4.0835 4.37516C4.0835 5.98599 5.38933 7.29183 7.00016 7.29183C8.61099 7.29183 9.91683 5.98599 9.91683 4.37516C9.91683 2.76433 8.61099 1.4585 7.00016 1.4585ZM4.66683 7.87516C3.82729 7.87516 3.0307 8.13099 2.43378 8.63628C1.82762 9.1494 1.4585 9.89567 1.4585 10.7918V11.6668C1.4585 12.1501 1.85025 12.5418 2.3335 12.5418H11.6668C12.1501 12.5418 12.5418 12.1501 12.5418 11.6668V10.7918C12.5418 9.89567 12.1727 9.1494 11.5665 8.63628C10.9696 8.13099 10.173 7.87516 9.3335 7.87516H4.66683ZM2.62516 10.7918C2.62516 10.2382 2.84367 9.81785 3.18756 9.52674C3.54072 9.2278 4.05663 9.04183 4.66683 9.04183H9.3335C9.9437 9.04183 10.4596 9.2278 10.8128 9.52674C11.1567 9.81785 11.3752 10.2382 11.3752 10.7918V11.3752H2.62516V10.7918Z" fill="#4E5969"/>
</svg>
