<svg width="12" height="12" viewBox="0 0 12 12" fill="none" xmlns="http://www.w3.org/2000/svg">
<path fill-rule="evenodd" clip-rule="evenodd" d="M2.64125 7.9445C2.25072 8.33503 2.25072 8.96819 2.64125 9.35872C3.03177 9.74924 3.66494 9.74924 4.05546 9.35872L6.17678 7.2374C6.56731 6.84687 6.56731 6.21371 6.17678 5.82318L6.88389 5.11608C7.66494 5.89713 7.66494 7.16346 6.88389 7.9445L4.76257 10.0658C3.98152 10.8469 2.71519 10.8469 1.93414 10.0658C1.15309 9.28478 1.15309 8.01845 1.93414 7.2374L3.17158 5.99996L3.87869 6.70707L2.64125 7.9445ZM5.11612 6.88384C4.33507 6.1028 4.33507 4.83647 5.11612 4.05542L7.23744 1.9341C8.01849 1.15305 9.28482 1.15305 10.0659 1.9341C10.8469 2.71515 10.8469 3.98148 10.0659 4.76252L8.82843 5.99996L8.12133 5.29285L9.35876 4.05542C9.74929 3.66489 9.74929 3.03173 9.35876 2.6412C8.96824 2.25068 8.33507 2.25068 7.94455 2.6412L5.82323 4.76252C5.4327 5.15305 5.4327 5.78621 5.82323 6.17674L5.11612 6.88384Z" fill="#00B42A"/>
</svg>
