<svg width="14" height="14" viewBox="0 0 14 14" fill="none" xmlns="http://www.w3.org/2000/svg">
<path fill-rule="evenodd" clip-rule="evenodd" d="M2.04134 1.4585C1.71918 1.4585 1.45801 1.71966 1.45801 2.04183V5.8335C1.45801 6.15566 1.71918 6.41683 2.04134 6.41683H5.83301C6.15517 6.41683 6.41634 6.15566 6.41634 5.8335V2.04183C6.41634 1.71966 6.15517 1.4585 5.83301 1.4585H2.04134ZM2.62467 5.25016V2.62516H5.24967V5.25016H2.62467ZM8.16634 1.4585C7.84418 1.4585 7.58301 1.71966 7.58301 2.04183V5.8335C7.58301 6.15566 7.84418 6.41683 8.16634 6.41683H11.958C12.2802 6.41683 12.5413 6.15566 12.5413 5.8335V2.04183C12.5413 1.71966 12.2802 1.4585 11.958 1.4585H8.16634ZM8.74967 5.25016V2.62516H11.3747V5.25016H8.74967ZM1.45801 8.16683C1.45801 7.84466 1.71918 7.5835 2.04134 7.5835H5.83301C6.15517 7.5835 6.41634 7.84466 6.41634 8.16683V11.9585C6.41634 12.2807 6.15517 12.5418 5.83301 12.5418H2.04134C1.71918 12.5418 1.45801 12.2807 1.45801 11.9585V8.16683ZM2.62467 8.75016V11.3752H5.24967V8.75016H2.62467ZM8.16634 7.5835C7.84418 7.5835 7.58301 7.84466 7.58301 8.16683V11.9585C7.58301 12.2807 7.84418 12.5418 8.16634 12.5418H11.958C12.2802 12.5418 12.5413 12.2807 12.5413 11.9585V8.16683C12.5413 7.84466 12.2802 7.5835 11.958 7.5835H8.16634ZM8.74967 11.3752V8.75016H11.3747V11.3752H8.74967Z" fill="#4E5969"/>
</svg>
