<svg width="14" height="14" viewBox="0 0 14 14" fill="none" xmlns="http://www.w3.org/2000/svg">
<path fill-rule="evenodd" clip-rule="evenodd" d="M2.33317 6.99984C2.33317 4.42251 4.42251 2.33317 6.99984 2.33317C9.57717 2.33317 11.6665 4.42251 11.6665 6.99984C11.6665 9.57717 9.57717 11.6665 6.99984 11.6665C4.42251 11.6665 2.33317 9.57717 2.33317 6.99984ZM6.99984 1.1665C3.77818 1.1665 1.1665 3.77818 1.1665 6.99984C1.1665 10.2215 3.77818 12.8332 6.99984 12.8332C10.2215 12.8332 12.8332 10.2215 12.8332 6.99984C12.8332 3.77818 10.2215 1.1665 6.99984 1.1665ZM6.00818 5.82693V5.69242C6.00888 5.53238 6.06611 5.35485 6.19382 5.22138C6.31176 5.0981 6.54165 4.95817 6.99649 4.95817C7.42361 4.95817 7.72063 5.1621 7.8721 5.39362C8.03385 5.64086 8.00198 5.84831 7.92521 5.95196C7.82946 6.08122 7.71058 6.20061 7.56691 6.32995C7.5232 6.36929 7.46933 6.41617 7.41156 6.46644L7.41155 6.46645C7.30825 6.55634 7.19251 6.65705 7.10022 6.74487C6.77254 7.05666 6.41661 7.49183 6.41661 8.1665L6.41851 8.46192L7.58515 8.45442L7.58329 8.16491C7.58372 7.96539 7.66551 7.8174 7.90444 7.59006C7.98476 7.51363 8.05695 7.45118 8.13956 7.37971L8.13959 7.37968C8.20069 7.32682 8.26748 7.26904 8.34747 7.19703C8.51383 7.04727 8.69895 6.86745 8.8627 6.64638C9.30493 6.04936 9.20151 5.29464 8.84838 4.75489C8.48497 4.19941 7.82375 3.7915 6.99649 3.7915C6.2806 3.7915 5.72558 4.02317 5.35085 4.41483C4.98608 4.79607 4.84284 5.27642 4.84151 5.68947V5.82693H6.00818ZM6.4185 9.0415V10.2104H7.58516V9.0415H6.4185Z" fill="#C9CDD4"/>
</svg>
