<svg width="15" height="12" viewBox="0 0 15 12" fill="none" xmlns="http://www.w3.org/2000/svg">
<path fill-rule="evenodd" clip-rule="evenodd" d="M7.05885 3.03201C6.81062 3.48575 6.68567 3.96228 6.60847 4.44357C6.5625 4.73015 6.53719 4.98174 6.51163 5.23575C6.49292 5.42178 6.47407 5.6091 6.44689 5.8124C6.38901 6.24527 6.29601 6.70133 6.05185 7.09261C5.93345 7.28235 5.72111 7.51151 5.35261 7.57862C4.98268 7.64598 4.68156 7.50906 4.50934 7.40064C4.17369 7.18932 3.8912 6.81482 3.68299 6.49784C3.6267 6.41214 3.57207 6.32456 3.51959 6.23702C3.36242 6.88692 3.38245 7.69823 4.00841 8.47844C4.71882 9.36392 5.76695 9.80125 6.80117 9.94531C7.85991 10.0928 8.83585 9.92398 9.34899 9.667C10.7076 8.9866 11.7815 7.58473 10.9617 6.01668C10.8202 5.81486 10.7004 5.6048 10.5991 5.39793C10.5151 5.58031 10.4111 5.76834 10.2759 5.92007C10.1844 6.02272 10.0521 6.13951 9.86414 6.21799C9.65939 6.30349 9.42662 6.32712 9.19377 6.28048C8.43048 6.12758 7.95405 5.65761 7.66106 5.16817C7.36716 4.67719 7.21029 4.09299 7.12446 3.55852C7.09572 3.37956 7.07442 3.20261 7.05885 3.03201ZM11.3069 3.59265L11.307 3.59335L11.3081 3.60075C11.3092 3.60786 11.311 3.61925 11.3136 3.63457C11.3188 3.66521 11.3271 3.71145 11.3392 3.77046C11.3634 3.8887 11.4024 4.05692 11.4611 4.25275C11.5801 4.65008 11.7725 5.13588 12.0662 5.54768L12.0839 5.5725L12.0979 5.59876C13.2642 7.77925 11.7065 9.66613 10.0123 10.5146C9.18524 10.9288 7.88208 11.1109 6.58675 10.9305C5.26691 10.7466 3.88601 10.1772 2.95644 9.01859C2.08747 7.93547 2.09531 6.81761 2.30468 5.99743C2.40941 5.58717 2.56601 5.24345 2.69666 5.00152C2.76221 4.88012 2.82189 4.78313 2.86641 4.71483C2.88869 4.68065 2.90724 4.65356 2.92092 4.63408C2.92775 4.62434 2.93338 4.6165 2.93765 4.61061L2.94302 4.60326L2.94492 4.6007L2.94566 4.59971L2.94598 4.59928C2.94612 4.59909 2.94626 4.5989 3.48242 4.85584L2.94626 4.5989L3.63388 3.68061L4.07279 4.69172L4.07338 4.69307L4.07582 4.69863L4.08622 4.72206C4.09553 4.74293 4.10952 4.77395 4.1277 4.81338C4.16409 4.89231 4.21707 5.00451 4.28272 5.13602C4.41512 5.40124 4.59445 5.73569 4.78952 6.03268C4.88565 6.17903 4.97503 6.29941 5.05369 6.39327C5.12084 6.20782 5.16712 5.98173 5.20398 5.70603C5.22321 5.56224 5.24092 5.39109 5.25992 5.20759C5.28953 4.92153 5.32225 4.60547 5.36863 4.31629C5.53291 3.29218 5.91876 2.12057 7.24475 1.13397L8.4118 0.265625L8.2937 1.53692L8.29358 1.53829L8.29301 1.54491C8.29248 1.5511 8.29169 1.56083 8.29071 1.57387C8.28875 1.59995 8.28604 1.63923 8.28325 1.68994C8.27766 1.79142 8.27176 1.9382 8.27078 2.11608C8.26881 2.47353 8.28681 2.9487 8.36427 3.43109C8.4427 3.91947 8.57736 4.38361 8.78845 4.73625C8.95065 5.00721 9.13042 5.16975 9.32007 5.25403C9.36722 5.17827 9.42227 5.06797 9.48546 4.91608C9.54111 4.78231 9.59112 4.64776 9.645 4.50278C9.68118 4.40545 9.7191 4.30341 9.76165 4.19376C9.86007 3.94013 9.97695 3.66419 10.1265 3.42445L11.0732 1.90733L11.3069 3.59214L11.3069 3.59265ZM4.91084 6.67731C4.91081 6.67721 4.91189 6.6759 4.91416 6.67368C4.91201 6.6763 4.91087 6.67741 4.91084 6.67731ZM5.29156 6.62031C5.29408 6.62148 5.29537 6.62221 5.29539 6.62228C5.29541 6.62235 5.29415 6.62177 5.29156 6.62031Z" fill="#F7BA1E"/>
<path d="M3.50977 6.35256C3.50977 6.60005 3.62125 6.77121 3.73633 6.98219C3.78893 7.07863 3.87675 7.14395 3.9181 7.25881C3.97289 7.41098 4.09601 7.54613 4.16838 7.69086C4.21182 7.77774 4.32477 7.88912 4.34093 7.97801C4.35832 8.07362 4.4324 8.16511 4.45948 8.2599C4.4732 8.30793 4.52392 8.35314 4.54247 8.40348C4.59805 8.55434 4.44273 8.28025 4.42128 8.24936C4.3419 8.13505 4.24782 8.03902 4.14994 7.94113C4.08556 7.87676 4.02367 7.86358 3.96026 7.81073C3.82923 7.70154 3.88107 7.82399 3.96026 7.90162C4.36349 8.29694 4.90079 8.50105 5.39076 8.76044C5.46044 8.79733 5.64678 8.85888 5.68582 8.93695C5.73619 9.03771 5.78803 9.1483 5.83861 9.25309C5.86929 9.31662 5.88592 9.43154 5.94004 9.47965C5.94238 9.48172 5.99134 9.52546 5.9598 9.5139C5.85978 9.47722 5.77216 9.40647 5.67133 9.36768C5.58183 9.33326 5.48757 9.3151 5.39603 9.28733C5.17159 9.21925 4.83806 9.12237 4.65838 8.96066C4.65177 8.95471 4.55358 8.8491 4.58198 8.85265C4.70142 8.86758 4.85516 8.95957 4.96661 9.00018C5.22114 9.09293 5.47472 9.20231 5.73851 9.26626C5.93298 9.3134 6.13484 9.33983 6.33257 9.3769C6.58858 9.42491 6.83592 9.521 7.09524 9.55341C7.41836 9.5938 7.6903 9.74385 7.99622 9.83266C8.259 9.90895 8.53817 9.77362 8.7971 9.7668C8.90084 9.76407 9.02848 9.7278 9.13167 9.70884C9.33685 9.67116 9.57192 9.61213 9.75472 9.50599C9.96395 9.3845 10.1319 9.12567 10.2711 8.93432C10.431 8.71436 10.6424 8.52436 10.7887 8.29678C10.8611 8.18415 10.9713 8.05666 11.0008 7.92401C11.027 7.80596 11.097 7.70645 11.097 7.58548C11.097 7.38707 11.165 7.21939 11.1971 7.02961C11.2255 6.86163 11.4335 6.68469 11.3762 6.50009C11.3057 6.2728 11.1647 6.04589 11.0601 5.83094C10.9924 5.69177 10.97 5.58474 10.823 5.499C10.7163 5.43678 10.6937 5.35175 10.7598 5.50427C10.8084 5.61652 10.8124 5.72332 10.8124 5.8428C10.8124 6.13018 10.7153 6.40396 10.6952 6.69504C10.6803 6.91146 10.6027 7.09833 10.4542 7.25749C10.186 7.54486 9.93319 7.76621 9.55845 7.91611C9.2916 8.02284 8.94327 8.02019 8.65747 8.04651C8.44679 8.06591 8.23392 8.06175 8.02257 8.05968C7.82167 8.05771 7.71611 8.07619 7.63531 7.88844C7.54407 7.67645 7.52893 7.40827 7.51149 7.17978C7.49529 6.96755 7.48744 6.75516 7.49305 6.54224C7.49743 6.37555 7.55144 6.22891 7.53783 6.05882C7.51934 5.8277 7.43156 5.56561 7.35079 5.34752C7.31072 5.23934 7.32708 5.11656 7.32708 5.00241C7.32708 4.74055 7.30061 4.49022 7.27966 4.23184C7.26614 4.06513 7.15462 3.92945 7.11895 3.77608C7.10202 3.70325 7.06627 3.62406 7.06627 3.54951C7.06627 3.42887 7.06765 3.40267 7.06627 3.56005C7.06304 3.92825 6.95615 4.2776 6.94772 4.64017C6.9454 4.73956 6.70253 5.67871 6.63817 5.64653C6.59827 5.62658 6.5995 5.40165 6.59733 5.36728C6.58629 5.19177 6.59207 5.01482 6.59207 4.83907C6.59207 4.54769 6.57828 4.26897 6.66188 3.98683C6.70932 3.82671 6.73373 3.64482 6.80546 3.49419C6.83488 3.43241 6.80685 3.34737 6.86341 3.31505C6.89448 3.2973 6.93134 3.2261 6.98328 3.24919C7.07143 3.28837 7.06274 3.56462 7.06495 3.63513C7.07957 4.10304 7.03754 4.58936 6.94903 5.04851C6.91156 5.24289 6.84354 5.42787 6.80546 5.62019C6.72679 6.01743 6.61269 6.39971 6.54465 6.80042C6.52434 6.91998 6.47458 7.02929 6.45244 7.14553C6.44323 7.19388 6.45527 7.24241 6.43927 7.29042C6.40846 7.38283 6.32366 7.49469 6.27066 7.57494C6.19238 7.69348 6.12523 7.68597 5.98614 7.69876C5.62999 7.73151 5.2744 7.65661 4.91919 7.65661C4.79727 7.65661 4.66625 7.64315 4.5451 7.65661C4.40697 7.67196 4.821 7.69877 4.95344 7.74091C5.1951 7.81781 5.4043 7.9732 5.61996 8.10447C5.93066 8.29359 6.34741 8.3458 6.68691 8.46802C6.81743 8.51501 6.96114 8.56983 7.07417 8.65243C7.12649 8.69066 7.11796 8.71214 7.20326 8.72883C7.54104 8.79492 7.89548 8.80502 8.23859 8.84211C8.59262 8.88039 8.94693 8.88953 9.30291 8.88953C9.52338 8.88953 9.8115 8.63973 9.94835 8.48646C10.0537 8.3685 10.1592 8.2966 10.2329 8.14925C10.3142 7.98664 10.3889 7.804 10.4067 7.62105C10.4451 7.22772 10.3846 6.82824 10.4278 6.43423C10.4401 6.32205 10.4122 6.19854 10.4515 6.09175C10.47 6.04174 10.2474 6.08354 10.225 6.08648C9.82765 6.13859 9.34771 6.11422 8.9578 6.04433C8.54793 5.97087 8.1466 5.83699 7.73541 5.77825C7.60347 5.7594 7.24312 5.62531 7.56418 5.8046C7.81846 5.9466 8.09658 6.03021 8.37427 6.11283C8.53531 6.16074 8.7119 6.23662 8.88008 6.25641C9.03495 6.27463 9.18024 6.37125 9.3332 6.41184C9.47557 6.44961 9.61541 6.50885 9.75735 6.54224C9.82167 6.55738 10.2574 6.675 10.088 6.81622C9.95851 6.92411 9.7423 6.91906 9.58479 6.9216C9.40458 6.92451 9.22277 6.92681 9.04473 6.89526C8.5838 6.81357 8.11464 6.76734 7.64848 6.72138C7.57962 6.7146 7.45422 6.68515 7.38503 6.70821C7.32399 6.72856 7.50477 6.75563 7.56286 6.78329C7.84026 6.91539 8.15429 6.94502 8.42827 7.0744C8.68703 7.19659 8.93554 7.24907 9.21861 7.30623C9.23711 7.30997 9.60053 7.38017 9.52684 7.42083C9.36116 7.51224 9.11141 7.48937 8.93145 7.49064C8.54335 7.49339 8.15515 7.49064 7.76703 7.49064C7.46055 7.49064 7.15408 7.49064 6.84761 7.49064C6.81309 7.49064 6.67008 7.46805 6.64475 7.49591C6.62701 7.51543 6.77184 7.61362 6.78175 7.62105C6.90547 7.71384 7.04429 7.76371 7.17296 7.84497C7.24112 7.88802 7.27448 7.89481 7.30337 7.82258" stroke="#F7BA1E" stroke-linecap="round"/>
<path d="M8.29905 9.24512C8.28659 9.36351 8.22906 9.51345 8.10938 9.55335" stroke="#F7BA1E" stroke-linecap="round"/>
</svg>
