<svg width="14" height="15" viewBox="0 0 14 15" fill="none" xmlns="http://www.w3.org/2000/svg">
<path fill-rule="evenodd" clip-rule="evenodd" d="M9.23306 3.95859C7.63841 2.36395 5.05299 2.36395 3.45835 3.95859C1.86371 5.55324 1.86371 8.13866 3.45835 9.7333C5.05299 11.3279 7.63841 11.3279 9.23306 9.7333C10.8277 8.13866 10.8277 5.55324 9.23306 3.95859ZM2.63339 3.13364C4.68364 1.08338 8.00776 1.08338 10.058 3.13364C11.9688 5.04447 12.0988 8.0618 10.4478 10.1231L12.5329 12.2082L11.7079 13.0331L9.62288 10.9481C7.56156 12.599 4.54422 12.4691 2.63339 10.5583C0.58314 8.508 0.58314 5.18389 2.63339 3.13364Z" fill="#1D2129"/>
</svg>
